<svg xmlns="http://www.w3.org/2000/svg" xmlns:xlink="http://www.w3.org/1999/xlink" width="1080" zoomAndPan="magnify" viewBox="0 0 810 809.999993" height="1080" preserveAspectRatio="xMidYMid meet" version="1.0"><defs><clipPath id="cdbe47b354"><path d="M 243 243 L 567 243 L 567 567 L 243 567 Z M 243 243 " clip-rule="nonzero"/></clipPath></defs><g clip-path="url(#cdbe47b354)"><path fill="#1a4789" d="M 567 517.730469 C 567 544.921875 544.960938 566.960938 517.769531 566.960938 L 292.246094 566.960938 C 265.054688 566.960938 243.011719 544.921875 243.011719 517.730469 L 243.011719 292.207031 C 243.011719 265.015625 265.054688 242.972656 292.246094 242.972656 L 517.769531 242.972656 C 544.960938 242.972656 567 265.015625 567 292.207031 Z M 567 517.730469 " fill-opacity="1" fill-rule="nonzero"/></g><path fill="#ffffff" d="M 457.6875 430.140625 L 462.925781 389.519531 L 422.699219 389.519531 L 422.699219 363.582031 C 422.699219 351.820312 425.980469 343.804688 442.84375 343.804688 L 464.335938 343.792969 L 464.335938 307.460938 C 460.625 306.964844 447.867188 305.859375 432.996094 305.859375 C 401.980469 305.859375 380.757812 324.792969 380.757812 359.5625 L 380.757812 389.519531 L 345.675781 389.519531 L 345.675781 430.140625 L 380.757812 430.140625 L 380.757812 534.375 L 422.699219 534.375 L 422.699219 430.140625 Z M 457.6875 430.140625 " fill-opacity="1" fill-rule="nonzero"/></svg>