<svg xmlns="http://www.w3.org/2000/svg" xmlns:xlink="http://www.w3.org/1999/xlink" width="1080" zoomAndPan="magnify" viewBox="0 0 810 809.999993" height="1080" preserveAspectRatio="xMidYMid meet" version="1.0"><path fill="#3acc41" d="M 516.605469 243 L 293.394531 243 C 265.5625 243 243 265.5625 243 293.394531 L 243 516.605469 C 243 544.4375 265.5625 567 293.394531 567 L 516.605469 567 C 544.4375 567 567 544.4375 567 516.605469 L 567 293.394531 C 567 265.5625 544.4375 243 516.605469 243 " fill-opacity="1" fill-rule="nonzero"/><path fill="#f7f7f7" d="M 415.917969 444.953125 C 420.617188 448.363281 425.648438 447.675781 430.480469 445.289062 C 435.128906 442.988281 439.617188 440.355469 444.160156 437.84375 C 448.726562 435.316406 452.84375 435.59375 457.527344 438.3125 C 469.886719 445.488281 481.558594 453.738281 493.835938 461.03125 C 500.5 464.992188 501.074219 467.183594 498.078125 474.320312 C 495.488281 480.480469 492.488281 486.414062 487.75 491.261719 C 481.421875 497.730469 473.679688 501.070312 464.675781 499.988281 C 456.546875 499.011719 448.773438 496.261719 441.152344 493.253906 C 432.136719 489.695312 423.609375 485.175781 415.292969 480.1875 C 394.6875 467.820312 377.1875 451.773438 360.621094 434.585938 C 355.289062 429.058594 341.734375 412.070312 340.929688 410.984375 C 332.164062 399.128906 324.355469 386.710938 318.421875 373.164062 C 314.460938 364.113281 311.546875 354.769531 310.40625 344.921875 C 309.21875 334.675781 312.96875 326.476562 320.878906 320.089844 C 325.992188 315.960938 331.804688 312.988281 337.902344 310.648438 C 342.414062 308.914062 344.539062 309.753906 347.566406 314.371094 C 352.851562 322.421875 369.207031 348.632812 372.339844 353.53125 C 374.378906 356.722656 374.777344 359.96875 372.988281 363.304688 C 371.144531 366.742188 364.253906 378.929688 363.324219 381.910156 C 361.808594 386.75 362.445312 391.128906 365.726562 395.128906 C 370.292969 400.703125 404.96875 437.003906 415.917969 444.953125 " fill-opacity="1" fill-rule="nonzero"/><path stroke-linecap="butt" transform="matrix(0.75, 0, 0, 0.75, 275.39999, 403.5)" fill="none" stroke-linejoin="miter" d="M -0.00206953 2.000001 L 345.602115 2.000001 " stroke="#000000" stroke-width="4" stroke-opacity="1" stroke-miterlimit="4"/></svg>