<svg xmlns="http://www.w3.org/2000/svg" xmlns:xlink="http://www.w3.org/1999/xlink" width="1080" zoomAndPan="magnify" viewBox="0 0 810 809.999993" height="1080" preserveAspectRatio="xMidYMid meet" version="1.0"><defs><clipPath id="a1459e59a5"><path d="M 210.601562 311.476562 L 534.601562 311.476562 L 534.601562 635.476562 L 210.601562 635.476562 Z M 210.601562 311.476562 " clip-rule="nonzero"/></clipPath></defs><g clip-path="url(#a1459e59a5)"><path fill="#1e72bb" d="M 292.242188 311.476562 L 452.957031 311.476562 C 454.292969 311.476562 455.628906 311.511719 456.964844 311.574219 C 458.296875 311.640625 459.628906 311.738281 460.960938 311.871094 C 462.289062 312 463.617188 312.164062 464.9375 312.359375 C 466.257812 312.558594 467.574219 312.785156 468.886719 313.046875 C 470.195312 313.304688 471.5 313.597656 472.796875 313.921875 C 474.089844 314.25 475.378906 314.605469 476.65625 314.992188 C 477.9375 315.378906 479.203125 315.800781 480.460938 316.25 C 481.71875 316.699219 482.964844 317.179688 484.199219 317.691406 C 485.433594 318.203125 486.65625 318.746094 487.863281 319.316406 C 489.074219 319.886719 490.265625 320.488281 491.445312 321.117188 C 492.621094 321.746094 493.785156 322.40625 494.929688 323.09375 C 496.078125 323.777344 497.203125 324.492188 498.316406 325.234375 C 499.425781 325.980469 500.519531 326.746094 501.59375 327.542969 C 502.664062 328.339844 503.71875 329.160156 504.75 330.007812 C 505.785156 330.855469 506.796875 331.730469 507.785156 332.625 C 508.777344 333.523438 509.742188 334.445312 510.6875 335.390625 C 511.632812 336.335938 512.554688 337.300781 513.449219 338.292969 C 514.347656 339.28125 515.21875 340.292969 516.066406 341.324219 C 516.914062 342.359375 517.738281 343.410156 518.535156 344.484375 C 519.328125 345.558594 520.097656 346.648438 520.839844 347.761719 C 521.582031 348.871094 522.296875 350 522.984375 351.148438 C 523.671875 352.292969 524.328125 353.453125 524.960938 354.632812 C 525.589844 355.8125 526.191406 357.003906 526.761719 358.210938 C 527.332031 359.421875 527.875 360.640625 528.386719 361.875 C 528.898438 363.109375 529.378906 364.355469 529.828125 365.613281 C 530.277344 366.871094 530.695312 368.140625 531.085938 369.417969 C 531.472656 370.699219 531.828125 371.984375 532.152344 373.28125 C 532.476562 374.578125 532.769531 375.882812 533.03125 377.191406 C 533.292969 378.5 533.519531 379.816406 533.714844 381.140625 C 533.914062 382.460938 534.074219 383.785156 534.207031 385.117188 C 534.335938 386.445312 534.4375 387.777344 534.5 389.113281 C 534.566406 390.449219 534.601562 391.78125 534.601562 393.117188 L 534.601562 553.835938 C 534.601562 555.171875 534.566406 556.507812 534.5 557.839844 C 534.4375 559.175781 534.335938 560.507812 534.207031 561.835938 C 534.074219 563.167969 533.914062 564.492188 533.714844 565.816406 C 533.519531 567.136719 533.292969 568.453125 533.03125 569.761719 C 532.769531 571.074219 532.476562 572.375 532.152344 573.671875 C 531.828125 574.96875 531.472656 576.257812 531.085938 577.535156 C 530.695312 578.8125 530.277344 580.082031 529.828125 581.339844 C 529.378906 582.597656 528.898438 583.84375 528.386719 585.078125 C 527.875 586.3125 527.332031 587.535156 526.761719 588.742188 C 526.191406 589.949219 525.589844 591.140625 524.960938 592.320312 C 524.328125 593.5 523.671875 594.660156 522.984375 595.808594 C 522.296875 596.953125 521.582031 598.082031 520.839844 599.191406 C 520.097656 600.304688 519.328125 601.394531 518.535156 602.46875 C 517.738281 603.542969 516.914062 604.59375 516.066406 605.628906 C 515.21875 606.660156 514.347656 607.671875 513.449219 608.664062 C 512.554688 609.652344 511.632812 610.621094 510.6875 611.566406 C 509.742188 612.507812 508.777344 613.429688 507.785156 614.328125 C 506.796875 615.226562 505.785156 616.097656 504.75 616.945312 C 503.71875 617.792969 502.664062 618.613281 501.59375 619.410156 C 500.519531 620.207031 499.425781 620.976562 498.316406 621.71875 C 497.203125 622.460938 496.078125 623.175781 494.929688 623.863281 C 493.785156 624.546875 492.621094 625.207031 491.445312 625.835938 C 490.265625 626.464844 489.074219 627.066406 487.863281 627.636719 C 486.65625 628.210938 485.433594 628.75 484.199219 629.261719 C 482.964844 629.773438 481.71875 630.253906 480.460938 630.703125 C 479.203125 631.15625 477.9375 631.574219 476.65625 631.960938 C 475.378906 632.347656 474.089844 632.707031 472.796875 633.03125 C 471.5 633.355469 470.195312 633.648438 468.886719 633.910156 C 467.574219 634.167969 466.257812 634.398438 464.9375 634.59375 C 463.617188 634.789062 462.289062 634.953125 460.960938 635.085938 C 459.628906 635.214844 458.296875 635.3125 456.964844 635.378906 C 455.628906 635.445312 454.292969 635.476562 452.957031 635.476562 L 292.242188 635.476562 C 290.90625 635.476562 289.570312 635.445312 288.234375 635.378906 C 286.902344 635.3125 285.570312 635.214844 284.238281 635.085938 C 282.910156 634.953125 281.585938 634.789062 280.261719 634.59375 C 278.941406 634.398438 277.625 634.167969 276.3125 633.910156 C 275.003906 633.648438 273.699219 633.355469 272.40625 633.03125 C 271.109375 632.707031 269.820312 632.347656 268.542969 631.960938 C 267.265625 631.574219 265.996094 631.15625 264.738281 630.703125 C 263.480469 630.253906 262.234375 629.773438 261 629.261719 C 259.765625 628.75 258.542969 628.210938 257.335938 627.636719 C 256.128906 627.066406 254.933594 626.464844 253.757812 625.835938 C 252.578125 625.207031 251.414062 624.546875 250.269531 623.863281 C 249.125 623.175781 247.996094 622.460938 246.882812 621.71875 C 245.773438 620.976562 244.679688 620.207031 243.609375 619.410156 C 242.535156 618.613281 241.480469 617.792969 240.449219 616.945312 C 239.414062 616.097656 238.40625 615.226562 237.414062 614.328125 C 236.425781 613.429688 235.457031 612.507812 234.511719 611.566406 C 233.566406 610.621094 232.644531 609.652344 231.75 608.664062 C 230.851562 607.671875 229.980469 606.660156 229.132812 605.628906 C 228.285156 604.59375 227.460938 603.542969 226.667969 602.46875 C 225.871094 601.394531 225.101562 600.304688 224.359375 599.191406 C 223.617188 598.082031 222.902344 596.953125 222.214844 595.808594 C 221.527344 594.660156 220.871094 593.5 220.238281 592.320312 C 219.609375 591.140625 219.007812 589.949219 218.4375 588.742188 C 217.867188 587.535156 217.324219 586.3125 216.816406 585.078125 C 216.304688 583.84375 215.824219 582.597656 215.371094 581.339844 C 214.921875 580.082031 214.503906 578.8125 214.117188 577.535156 C 213.726562 576.257812 213.371094 574.96875 213.046875 573.671875 C 212.722656 572.375 212.429688 571.074219 212.167969 569.761719 C 211.90625 568.453125 211.679688 567.136719 211.484375 565.816406 C 211.289062 564.492188 211.125 563.167969 210.992188 561.835938 C 210.863281 560.507812 210.765625 559.175781 210.699219 557.839844 C 210.632812 556.507812 210.601562 555.171875 210.601562 553.835938 L 210.601562 393.117188 C 210.601562 391.78125 210.632812 390.449219 210.699219 389.113281 C 210.765625 387.777344 210.863281 386.445312 210.992188 385.117188 C 211.125 383.785156 211.289062 382.460938 211.484375 381.140625 C 211.679688 379.816406 211.90625 378.5 212.167969 377.191406 C 212.429688 375.882812 212.722656 374.578125 213.046875 373.28125 C 213.371094 371.984375 213.726562 370.699219 214.117188 369.417969 C 214.503906 368.140625 214.921875 366.871094 215.371094 365.613281 C 215.824219 364.355469 216.304688 363.109375 216.816406 361.875 C 217.324219 360.640625 217.867188 359.421875 218.4375 358.210938 C 219.007812 357.003906 219.609375 355.8125 220.238281 354.632812 C 220.871094 353.453125 221.527344 352.292969 222.214844 351.148438 C 222.902344 350 223.617188 348.871094 224.359375 347.761719 C 225.101562 346.648438 225.871094 345.558594 226.667969 344.484375 C 227.460938 343.410156 228.285156 342.359375 229.132812 341.324219 C 229.980469 340.292969 230.851562 339.28125 231.75 338.292969 C 232.644531 337.300781 233.566406 336.335938 234.511719 335.390625 C 235.457031 334.445312 236.425781 333.523438 237.414062 332.625 C 238.40625 331.730469 239.414062 330.855469 240.449219 330.007812 C 241.480469 329.160156 242.535156 328.339844 243.609375 327.542969 C 244.679688 326.746094 245.773438 325.980469 246.882812 325.234375 C 247.996094 324.492188 249.125 323.777344 250.269531 323.09375 C 251.414062 322.40625 252.578125 321.746094 253.757812 321.117188 C 254.933594 320.488281 256.128906 319.886719 257.335938 319.316406 C 258.542969 318.746094 259.765625 318.203125 261 317.691406 C 262.234375 317.179688 263.480469 316.699219 264.738281 316.25 C 265.996094 315.800781 267.265625 315.378906 268.542969 314.992188 C 269.820312 314.605469 271.109375 314.25 272.40625 313.921875 C 273.699219 313.597656 275.003906 313.304688 276.3125 313.046875 C 277.625 312.785156 278.941406 312.558594 280.261719 312.359375 C 281.585938 312.164062 282.910156 312 284.238281 311.871094 C 285.570312 311.738281 286.902344 311.640625 288.234375 311.574219 C 289.570312 311.511719 290.90625 311.476562 292.242188 311.476562 Z M 292.242188 311.476562 " fill-opacity="1" fill-rule="evenodd"/></g><path fill="#ffffff" d="M 292.242188 325.179688 C 254.890625 325.179688 224.304688 355.769531 224.304688 393.117188 L 224.304688 417.273438 C 269.136719 431.011719 319.429688 438.675781 372.582031 438.675781 C 425.730469 438.675781 476.027344 431.011719 520.859375 417.273438 L 520.859375 393.117188 C 520.859375 355.769531 490.273438 325.179688 452.957031 325.179688 Z M 292.242188 325.179688 " fill-opacity="0.122" fill-rule="evenodd"/><path fill="#ffffff" d="M 278.464844 395.792969 L 466.699219 395.792969 C 469.664062 395.792969 472.410156 396.589844 474.761719 398 L 372.582031 500.179688 C 338.484375 466.121094 304.570312 432.167969 270.402344 398 C 272.753906 396.589844 275.5 395.792969 278.464844 395.792969 Z M 482.425781 411.632812 L 482.425781 533.007812 L 421.753906 472.339844 Z M 476.097656 548.015625 C 473.496094 549.964844 470.242188 551.125 466.699219 551.125 L 278.464844 551.125 C 274.921875 551.125 271.667969 549.964844 269.066406 548.015625 L 334.074219 482.96875 L 367.265625 516.160156 C 370.195312 519.089844 374.96875 519.089844 377.898438 516.160156 L 411.089844 482.96875 Z M 262.738281 533.007812 L 262.738281 411.632812 L 323.410156 472.339844 Z M 262.738281 533.007812 " fill-opacity="1" fill-rule="evenodd"/></svg>